<svg xmlns="http://www.w3.org/2000/svg" width="21" height="17" viewBox="0 0 21 17"><defs><clipPath id="j0qia"><path fill="#fff" d="M21 14.625a1.88 1.88 0 0 1-1.875 1.875H1.875A1.88 1.88 0 0 1 0 14.625V5.32c.352.387.75.727 1.184 1.02 1.945 1.324 3.914 2.648 5.824 4.043.984.726 2.203 1.617 3.48 1.617h.024c1.277 0 2.496-.89 3.48-1.617 1.91-1.383 3.88-2.719 5.836-4.043.422-.293.82-.633 1.172-1.02zm-2.004-9.54c-1.828 1.267-3.668 2.532-5.484 3.81-.762.527-2.051 1.605-3 1.605h-.024c-.949 0-2.238-1.078-3-1.605-1.816-1.278-3.656-2.543-5.472-3.81C1.184 4.524 0 3.2 0 2.134 0 .984.621 0 1.875 0h17.25C20.145 0 21 .844 21 1.875c0 1.313-.973 2.496-2.004 3.21z"/></clipPath></defs><g><g><path fill="none" stroke="#fff" stroke-miterlimit="20" stroke-width="2" d="M21 14.625a1.88 1.88 0 0 1-1.875 1.875H1.875A1.88 1.88 0 0 1 0 14.625V5.32c.352.387.75.727 1.184 1.02 1.945 1.324 3.914 2.648 5.824 4.043.984.726 2.203 1.617 3.48 1.617h.024c1.277 0 2.496-.89 3.48-1.617 1.91-1.383 3.88-2.719 5.836-4.043.422-.293.82-.633 1.172-1.02zm-2.004-9.54c-1.828 1.267-3.668 2.532-5.484 3.81-.762.527-2.051 1.605-3 1.605h-.024c-.949 0-2.238-1.078-3-1.605-1.816-1.278-3.656-2.543-5.472-3.81C1.184 4.524 0 3.2 0 2.134 0 .984.621 0 1.875 0h17.25C20.145 0 21 .844 21 1.875c0 1.313-.973 2.496-2.004 3.21z" clip-path="url(&quot;#j0qia&quot;)"/></g></g></svg>