<svg xmlns="http://www.w3.org/2000/svg" width="25" height="25" viewBox="0 0 25 25"><defs><clipPath id="elfia"><path fill="#fff" d="M-.215 25.205V-.205h25.43v25.41zM12.498 1.69c-2.995 0-5.55 1.058-7.667 3.174C2.716 6.98 1.658 9.535 1.658 12.53a10.5 10.5 0 0 0 1.465 5.42L1.56 23.565l5.762-1.514a10.553 10.553 0 0 0 5.176 1.319c2.994 0 5.566-1.058 7.714-3.174 2.149-2.116 3.223-4.671 3.223-7.666 0-2.93-1.09-5.485-3.272-7.666-2.115-2.116-4.67-3.174-7.666-3.174zm-4.59 18.604l-.342-.196-3.418.88.928-3.321-.196-.342a8.662 8.662 0 0 1-1.416-4.785c0-2.474.88-4.59 2.637-6.348 1.79-1.758 3.923-2.637 6.397-2.637s4.59.88 6.347 2.637c1.856 1.823 2.767 3.939 2.734 6.348 0 2.474-.895 4.606-2.685 6.396-1.79 1.758-3.922 2.637-6.396 2.637-1.66 0-3.19-.423-4.59-1.27zm7.666-6.397c-.26-.098-.456-.049-.586.146a16.78 16.78 0 0 1-.88 1.075c-.13.162-.325.179-.585.049-.912-.456-1.644-.896-2.197-1.319-.521-.423-1.01-1.058-1.465-1.904-.065-.195-.082-.31-.05-.342l.343-.342a3.17 3.17 0 0 0 .488-.78c.065-.131.049-.294-.049-.49l-.83-2.001c-.098-.293-.293-.44-.586-.44H8.64c-.26 0-.504.098-.732.293-.619.716-.928 1.481-.928 2.295 0 .847.374 1.774 1.123 2.784 1.465 2.05 2.995 3.417 4.59 4.101 1.334.586 2.425.814 3.271.684.293-.033.635-.18 1.026-.44.423-.293.683-.57.78-.83.229-.684.294-1.123.196-1.318-.032-.065-.211-.18-.537-.342-.976-.488-1.595-.781-1.855-.879z"/></clipPath></defs><g><g><path fill="none" stroke="#fff" stroke-miterlimit="20" stroke-width="2" d="M20.163 4.864c2.181 2.18 3.272 4.736 3.272 7.666 0 2.995-1.074 5.55-3.223 7.666-2.148 2.116-4.72 3.174-7.715 3.174-1.855 0-3.58-.44-5.175-1.319L1.56 23.565l1.562-5.615a10.5 10.5 0 0 1-1.464-5.42c0-2.995 1.058-5.55 3.173-7.666C6.947 2.748 9.503 1.69 12.497 1.69c2.995 0 5.55 1.058 7.666 3.174zm-7.665 16.699c2.474 0 4.606-.879 6.396-2.637 1.79-1.79 2.686-3.922 2.686-6.396.032-2.409-.88-4.525-2.735-6.348-1.758-1.758-3.874-2.637-6.348-2.637-2.473 0-4.606.88-6.396 2.637-1.758 1.758-2.637 3.874-2.637 6.348 0 1.725.472 3.32 1.416 4.785l.196.342-.928 3.32 3.418-.879.342.195c1.4.847 2.93 1.27 4.59 1.27zm4.931-6.787c.326.163.505.277.537.342.098.195.033.634-.195 1.318-.098.26-.358.537-.781.83-.39.26-.733.407-1.026.44-.846.13-1.937-.098-3.271-.684-1.595-.684-3.125-2.05-4.59-4.101-.749-1.01-1.123-1.937-1.123-2.784 0-.814.31-1.579.928-2.295.228-.195.472-.293.732-.293h.537c.293 0 .488.147.586.44l.83 2.002c.098.195.114.358.049.488a3.17 3.17 0 0 1-.488.781l-.342.342c-.033.033-.016.147.049.342.456.846.944 1.481 1.465 1.904.553.423 1.285.863 2.197 1.319.26.13.456.114.586-.05.423-.487.716-.846.879-1.073.13-.196.325-.245.586-.147.26.098.879.39 1.855.879z" clip-path="url(&quot;#elfia&quot;)"/></g></g></svg>