<svg xmlns="http://www.w3.org/2000/svg" width="18" height="18" viewBox="0 0 18 18"><g><g><path fill="#c07a47" d="M4.156 6.32H.523V18h3.633zm-.781-1.875c.339-.208.599-.468.781-.78.209-.34.313-.691.313-1.056 0-.39-.104-.742-.313-1.054a1.883 1.883 0 0 0-.781-.782A1.98 1.98 0 0 0 2.359.5c-.573 0-1.067.208-1.484.625A2.028 2.028 0 0 0 .25 2.609c0 .573.208 1.068.625 1.485.417.416.911.625 1.484.625a1.98 1.98 0 0 0 1.016-.274zm14.375 7.149c0-.86-.065-1.602-.195-2.227a4.862 4.862 0 0 0-.625-1.719c-.287-.546-.73-.95-1.328-1.21-.573-.287-1.302-.43-2.188-.43-.833 0-1.55.195-2.148.586-.6.364-1.029.807-1.29 1.328h-.038V6.32H6.422V18h3.633v-5.781c0-.912.143-1.64.43-2.188.312-.547.898-.82 1.757-.82.443 0 .794.091 1.055.273.286.183.482.456.586.82.104.34.17.652.195.938.026.26.04.612.04 1.055V18h3.632z"/></g></g></svg>