<svg xmlns="http://www.w3.org/2000/svg" width="21" height="22" viewBox="0 0 21 22"><g><g><path fill="#c07a47" d="M17.86 3.547C19.952 5.64 21 8.094 21 10.907c0 2.874-1.031 5.327-3.094 7.359-2.062 2.03-4.531 3.047-7.406 3.047a10.13 10.13 0 0 1-4.969-1.266L0 21.5l1.5-5.39a10.08 10.08 0 0 1-1.406-5.204c0-2.875 1.015-5.328 3.047-7.36C5.17 1.517 7.625.5 10.5.5s5.328 1.016 7.36 3.047zM10.5 19.578c2.375 0 4.422-.844 6.14-2.531 1.72-1.719 2.579-3.766 2.579-6.14.031-2.313-.844-4.344-2.625-6.094C14.906 3.125 12.875 2.28 10.5 2.28c-2.375 0-4.422.844-6.14 2.532C2.671 6.5 1.827 8.53 1.827 10.906c0 1.657.453 3.188 1.36 4.594l.187.328-.89 3.188 3.28-.844.329.187a8.358 8.358 0 0 0 4.406 1.22zm4.734-6.515c.313.156.485.265.516.328.094.187.031.609-.188 1.265-.093.25-.343.516-.75.797-.374.25-.703.39-.984.422-.812.125-1.86-.094-3.14-.656-1.532-.656-3-1.969-4.407-3.938-.718-.969-1.078-1.86-1.078-2.672 0-.78.297-1.515.89-2.203.22-.187.454-.281.704-.281h.516c.28 0 .468.14.562.422l.797 1.922c.094.187.11.344.047.469a3.043 3.043 0 0 1-.469.75l-.328.328c-.031.03-.016.14.047.328.437.812.906 1.422 1.406 1.828.531.406 1.234.828 2.11 1.266.25.124.437.109.562-.047.406-.47.687-.813.844-1.032.125-.187.312-.234.562-.14.25.094.844.375 1.781.844z"/></g></g></svg>