<svg xmlns="http://www.w3.org/2000/svg" width="20" height="20" viewBox="0 0 20 20"><g><g><path fill="#090909" d="M6.522 6.275c.974-.974 2.148-1.461 3.523-1.461s2.535.487 3.48 1.46c.974.946 1.461 2.106 1.461 3.481s-.487 2.55-1.46 3.523c-.946.946-2.106 1.418-3.481 1.418s-2.55-.472-3.523-1.418c-.946-.973-1.418-2.148-1.418-3.523s.472-2.535 1.418-3.48zm1.246 5.757c.63.63 1.389.946 2.277.946.888 0 1.647-.315 2.277-.946.63-.63.946-1.389.946-2.277 0-.888-.315-1.647-.946-2.277a3.104 3.104 0 0 0-2.277-.946c-.888 0-1.647.315-2.277.946-.63.63-.946 1.389-.946 2.277 0 .888.315 1.647.946 2.277zm8.207-8.207c.229.2.343.459.343.774s-.114.587-.343.816a.98.98 0 0 1-.774.344c-.315 0-.587-.115-.816-.344a1.116 1.116 0 0 1-.344-.816c0-.315.115-.573.344-.774.229-.229.501-.343.816-.343a.98.98 0 0 1 .774.343zm3.652 1.977c.029.773.043 2.091.043 3.953 0 1.862-.014 3.18-.043 3.953-.086 1.747-.616 3.108-1.59 4.082-.945.945-2.292 1.447-4.039 1.504-.773.057-2.091.086-3.953.086-1.862 0-3.18-.029-3.953-.086-1.748-.086-3.094-.602-4.04-1.547a4.148 4.148 0 0 1-.902-1.203 7.057 7.057 0 0 1-.515-1.332 7.744 7.744 0 0 1-.13-1.504C.45 12.935.42 11.617.42 9.755c0-1.862.029-3.194.086-3.996.086-1.719.601-3.05 1.547-3.996C2.998.789 4.344.259 6.092.173 6.865.144 8.183.13 10.045.13c1.862 0 3.18.014 3.953.043 1.747.086 3.094.616 4.04 1.59.973.945 1.503 2.291 1.589 4.039zm-2.063 9.625c.086-.23.158-.516.215-.86.058-.372.1-.802.13-1.289.028-.515.042-.93.042-1.246V10.7v-.945-.945-1.332c0-.315-.014-.716-.043-1.203a12.172 12.172 0 0 0-.129-1.29 4.652 4.652 0 0 0-.215-.902c-.343-.888-.96-1.504-1.847-1.848a4.658 4.658 0 0 0-.903-.214c-.343-.058-.773-.1-1.289-.13a21.233 21.233 0 0 0-1.203-.042H7.768c-.315 0-.73.014-1.246.043-.487.028-.917.071-1.29.129a4.68 4.68 0 0 0-.859.214c-.888.344-1.504.96-1.848 1.848-.085.23-.157.53-.214.902-.058.344-.1.774-.13 1.29a21.23 21.23 0 0 0-.042 1.203v5.155c.028.43.057.803.086 1.118a11.384 11.384 0 0 0 .3 1.676c.373.888.989 1.504 1.848 1.848.23.086.516.157.86.214.372.058.802.1 1.289.13.515.028.916.042 1.203.042h4.597c.315 0 .716-.014 1.203-.043a12.17 12.17 0 0 0 1.29-.129c.372-.057.673-.129.902-.215.888-.372 1.504-.988 1.847-1.847z"/></g></g></svg>